<?xml version="1.0" standalone="no"?> <!DOCTYPE svg PUBLIC "-//W3C//DTD SVG 1.0//EN" "http://www.w3.org/TR/2001/REC-SVG-20010904/DTD/svg10.dtd" > <svg xmlns="http://www.w3.org/2000/svg" width="100%" height="100%">
<defs >
<font id="Antonio-Regular" horiz-adv-x="900" ><font-face
    font-family="Antonio"
    units-per-em="2048"
    panose-1="2 0 5 3 0 0 0 0 0 0"
    ascent="2342"
    descent="-612"
    alphabetic="0" />
<missing-glyph horiz-adv-x="1024" d="M102 1092H922V0H102V1092ZM820 102V990H204V102H820Z" />
<glyph unicode=" " glyph-name="space" horiz-adv-x="503" />
<glyph unicode="!" glyph-name="exclam" horiz-adv-x="528" d="M146 1760H381L306 395H222L146 1760ZM151 228H373V0H151V228Z" />
<glyph unicode="&quot;" glyph-name="quotedbl" horiz-adv-x="944" d="M535 1761H734L669 1125H599L535 1761ZM220 1761H419L354 1125H284L220 1761Z" />
<glyph unicode="#" glyph-name="numbersign" horiz-adv-x="1288" d="M907 1761H1079L962 1170H1106V1036H935L881 760H1051V626H854L730 0H559L681 626H478L356 0H185L308 626H161V760H335L389 1036H216V1170H416L533 1761H705L586 1170H788L907 1761ZM709 759L763
1032H559L504 759H709Z" />
<glyph unicode="$" glyph-name="dollar" horiz-adv-x="881" d="M745 354Q745 33 496 -5V-246H371V-7Q248 8 174 102T100 424V537H299V425Q299 165 417 165Q482 165 510 207T539 353Q539 516 389 663Q378 674 337 712T283 764Q88 950 88 1175Q88 1494 356 1525V1760H481V1522Q540
1512 582 1485Q720 1395 720 1060V988H525V1092Q525 1223 500 1287T412 1352T319 1313T288 1181Q288 1035 425 899L533 798Q745 595 745 354Z" />
<glyph unicode="%" glyph-name="percent" horiz-adv-x="2178" d="M1360 1760H1531L831 0H652L1360 1760ZM591 1433Q591 1541 565 1581T466 1621T367 1581T341 1433V937Q341 827 367 785T466 742T564 784T591 937V1433ZM156 1364Q156 1598 224 1690T466 1782T709
1690T777 1364V1009Q777 771 708 676T467 581T225 676T156 1009V1364ZM1401 763Q1401 997 1469 1089T1711 1181T1954 1089T2022 763V408Q2022 170 1953 75T1712 -20T1470 75T1401 408V763ZM1837 832Q1837 940 1811 980T1712 1020T1613 980T1587 832V336Q1587 226
1613 184T1711 141T1810 183T1837 336V832Z" />
<glyph unicode="&amp;" glyph-name="ampersand" horiz-adv-x="981" d="M610 357Q493 604 423 763Q254 538 254 347T409 155Q469 155 513 204T610 357ZM480 1098Q627 1284 627 1445Q627 1547 604 1590T514 1633T420 1597T389 1524T385 1441Q385 1350 480 1098ZM982
690Q898 589 794 365Q953 15 959 0H775Q759 39 697 173Q639 80 565 30T363 -20T151 78T66 357T145 668T346 940Q191 1309 191 1437Q191 1606 270 1694T502 1782T721 1695T788 1451T721 1176T549 924Q606 784 709 554Q796 717 894 834L982 690Z" />
<glyph unicode="&apos;" glyph-name="quotesingle" horiz-adv-x="413" d="M112 1761H309L244 1125H172L112 1761Z" />
<glyph unicode="(" glyph-name="parenleft" horiz-adv-x="567" d="M131 1391Q131 1591 172 1683Q214 1777 336 1800Q390 1810 475 1811V1656Q405 1656 381 1639T347 1573T336 1385V309Q336 88 370 63T475 38V-117Q318 -116 240 -70Q132 -5 131 313Q131 313 131 1391Z" />
<glyph unicode=")" glyph-name="parenright" horiz-adv-x="567" d="M92 1656V1811Q198 1811 259 1796T363 1732T421 1602T437 1381V313Q437 174 422 92T364 -38T260 -101T92 -117V38Q162 38 186 55T220 121T231 309V1385Q231 1606 197 1631T92 1656Z" />
<glyph unicode="*" glyph-name="asterisk" horiz-adv-x="960" d="M400 1727H560L536 1454L762 1626L843 1487L586 1361L843 1228L762 1088L536 1266L560 988H400L430 1271L203 1095L123 1235L373 1361L117 1480L198 1619L429 1451L400 1727Z" />
<glyph unicode="+" glyph-name="plus" horiz-adv-x="808" d="M327 1137H476V891H703V751H476V501H327V751H103V891H327V1137Z" />
<glyph unicode="," glyph-name="comma" horiz-adv-x="462" d="M119 235H377V9L276 -344H170L243 0H119V235Z" />
<glyph unicode="-" glyph-name="hyphen" horiz-adv-x="696" d="M88 899H540V763H88V899Z" />
<glyph unicode="." glyph-name="period" horiz-adv-x="532" d="M171 198H346V0H171V198Z" />
<glyph unicode="/" glyph-name="slash" horiz-adv-x="783" d="M526 1768H709L269 0H87L526 1768Z" />
<glyph unicode="0" glyph-name="zero" horiz-adv-x="915" d="M101 1316Q101 1550 174 1665T454 1781T736 1666T811 1316V475Q811 232 739 106T456 -21T173 104T101 475V1316ZM605 1327Q605 1583 496 1602Q479 1605 447 1605T386 1593T332 1522T307 1328V470Q307
466 307 462Q307 224 366 178Q396 154 438 154T499 158Q518 160 540 178Q605 228 605 463Q605 467 605 470V1327Z" />
<glyph unicode="1" glyph-name="one" horiz-adv-x="645" d="M325 1761H471V0H265V1483Q231 1442 169 1420T47 1397V1541Q132 1553 208 1610T325 1761Z" />
<glyph unicode="2" glyph-name="two" horiz-adv-x="892" d="M162 1173Q162 1585 248 1680Q281 1716 315 1738Q380 1780 497 1780Q786 1780 786 1293Q786 1051 661 815Q606 713 550 615Q409 371 374 155H759V0H174V98Q174 297 374 685Q375 686 439 810T516 952Q549
1013 569 1115T590 1322T575 1494T538 1582T486 1604T436 1592Q364 1548 364 1294V1065H162V1173Z" />
<glyph unicode="3" glyph-name="three" horiz-adv-x="908" d="M624 927Q806 844 806 485Q806 228 721 104T451 -20T190 99T114 474V552H314V471Q314 284 339 220T452 155T570 229T601 494T560 763T412 841H355V1006H410Q484 1006 522 1030Q599 1078 599 1313Q599
1316 599 1319Q599 1494 560 1549T453 1604T353 1542T321 1316V1274H118V1319Q118 1556 195 1668T453 1780T718 1666T802 1319Q802 993 624 927Z" />
<glyph unicode="4" glyph-name="four" horiz-adv-x="892" d="M487 1761H700V496H845V332H700V-1H512V332H96V477L487 1761ZM512 496V1412L266 496H512Z" />
<glyph unicode="5" glyph-name="five" horiz-adv-x="892" d="M335 1163Q370 1233 508 1233Q509 1233 511 1233Q579 1233 632 1186Q741 1088 741 668Q741 342 726 263T694 138Q642 -20 435 -20Q128 -20 128 316V510H328V315Q328 239 351 197T433 154T516 196T542
326V851Q542 958 519 1008T440 1058Q324 1058 324 871L146 887V1760H699V1574H335V1163Z" />
<glyph unicode="6" glyph-name="six" horiz-adv-x="892" d="M313 1016Q378 1102 531 1102T752 981T821 569V462Q821 221 748 101T470 -20Q222 -20 149 190Q107 312 107 516V1257Q107 1542 187 1661T456 1780T709 1672T777 1309V1249H578V1282Q578 1519 548 1561T443
1603T341 1534T313 1262V1016ZM618 573Q618 773 589 849T476 926Q418 926 372 902T313 854V482Q313 306 346 232T470 158Q530 158 560 182Q618 227 618 440V573Z" />
<glyph unicode="7" glyph-name="seven" horiz-adv-x="892" d="M113 1761H815V1611Q813 1595 757 1437T655 1113Q491 549 457 1H236Q277 548 476 1183Q538 1391 576 1488T614 1587H113V1761Z" />
<glyph unicode="8" glyph-name="eight" horiz-adv-x="892" d="M116 1344Q116 1576 193 1678T452 1780T710 1679T786 1344Q786 1044 643 946Q709 897 749 769T789 494V424Q785 191 706 86T451 -20T192 85T104 417Q103 429 103 535T144 769T255 943Q116 1042 116
1344ZM583 507Q583 685 549 774T453 863T351 772T310 504V435Q311 274 339 214T442 154T545 189T578 297T583 440V507ZM544 1057T562 1132T580 1318T573 1485T547 1570T508 1606T446 1614T378 1596Q322 1555 322 1322T382 1032Q408 1007 449 1007T517 1032Z" />
<glyph unicode="9" glyph-name="nine" horiz-adv-x="892" d="M67 1250Q67 1455 95 1548T160 1685Q241 1780 407 1780T647 1693T736 1425Q742 1352 742 1244V536Q742 178 641 66Q563 -20 406 -20T176 90T101 449V513H297V483Q297 240 331 198T430 155T515 209T536
432V706Q484 663 385 663Q197 663 132 798T67 1205V1250ZM536 1279Q536 1446 517 1504T472 1582T404 1602Q321 1602 296 1523T271 1278V1177Q271 975 297 902T417 828T536 884V1279Z" />
<glyph unicode=":" glyph-name="colon" horiz-adv-x="555" d="M152 1307H403V1057H152V1307ZM152 520H403V270H152V520Z" />
<glyph unicode=";" glyph-name="semicolon" horiz-adv-x="561" d="M143 534H428V291L314 -103H190L276 282H143V534ZM133 1234H414V954H133V1234Z" />
<glyph unicode="&lt;" glyph-name="less" horiz-adv-x="730" d="M64 860L640 1241V1021L207 755L640 478V264L64 649V860Z" />
<glyph unicode="=" glyph-name="equal" horiz-adv-x="722" d="M84 735H668V576H84V735ZM84 1050H668V892H84V1050Z" />
<glyph unicode="&gt;" glyph-name="greater" horiz-adv-x="730" d="M87 1027V1241L663 857V646L87 264V484L520 749L87 1027Z" />
<glyph unicode="?" glyph-name="question" horiz-adv-x="799" d="M140 1370Q140 1529 160 1585Q197 1691 258 1736T427 1782Q594 1782 654 1685Q695 1617 705 1524T716 1311T708 1112Q690 938 624 848T418 718V494H239V810Q326 836 360 860T414 899T449 941Q502
1033 507 1192Q509 1262 509 1387T497 1558T428 1604T357 1557T343 1356V1160H140V1370ZM242 299H419V1H242V299Z" />
<glyph unicode="@" glyph-name="at" horiz-adv-x="1406" d="M1077 518Q1173 518 1173 866Q1173 1105 1158 1204T1122 1360Q1028 1636 751 1636Q254 1636 254 833Q254 430 363 257T694 84Q838 88 889 112L911 -27Q769 -56 690 -56Q398 -56 246 167T94 831T251 1526T764
1781Q1181 1781 1284 1270Q1316 1112 1316 932T1292 635T1211 449T1083 378T962 440T894 591Q876 487 821 424T700 361Q577 361 493 463T409 795T477 1154T669 1283Q739 1283 791 1244T875 1148L905 1270H1005V713Q1005 614 1021 566T1077 518ZM696 1133Q548 1133
548 821T701 509Q774 509 820 579T867 759V1062Q766 1133 696 1133Z" />
<glyph unicode="A" glyph-name="A" horiz-adv-x="939" d="M333 1760H582L873 0H678L628 336H309L263 0H66L333 1760ZM332 504H602L463 1434H460L332 504Z" />
<glyph unicode="B" glyph-name="B" horiz-adv-x="952" d="M160 1760H478Q677 1760 748 1670T822 1364V1326Q822 1171 793 1082T689 953Q851 887 851 530V493Q848 229 771 115T504 0H160V1760ZM643 560Q643 730 615 798T505 866H367V167H494Q582 167 612 236T643
499V560ZM617 1361Q617 1364 617 1367Q617 1543 556 1575Q526 1591 469 1591H367V1025H484Q544 1025 569 1044T606 1122T617 1312V1361Z" />
<glyph unicode="C" glyph-name="C" horiz-adv-x="918" d="M124 1252Q124 1452 157 1546T229 1684Q314 1780 477 1781Q705 1780 771 1580Q809 1465 809 1274V1079H606V1275Q606 1444 588 1503T543 1582T477 1602Q394 1602 363 1524T331 1276V514Q331 314 359 235T469
155T578 235T606 515V710H811V517Q811 240 736 110T472 -21T204 113T124 519V1252Z" />
<glyph unicode="D" glyph-name="D" horiz-adv-x="949" d="M143 1760H474Q676 1760 752 1636T828 1282L829 509Q829 238 746 119T467 0H143V1760ZM622 1287Q622 1452 583 1524T455 1596H349V167H455Q515 167 549 191Q622 243 622 477V1287Z" />
<glyph unicode="E" glyph-name="E" horiz-adv-x="771" d="M144 1760H670V1588H351V986H653V814H351V172H674V0H144V1760Z" />
<glyph unicode="F" glyph-name="F" horiz-adv-x="746" d="M143 1760H673V1587H349V1031H653V856H349V0H143V1760Z" />
<glyph unicode="G" glyph-name="G" horiz-adv-x="942" d="M124 1262Q124 1650 308 1744Q380 1780 466 1781Q627 1781 699 1713T792 1532T813 1258V1122H613V1351Q613 1486 586 1544T478 1602T364 1529T331 1271V531Q331 320 360 238T474 155T591 240T623 535V764H480V924H813V0H704L676
136Q617 -17 451 -17T204 112T124 524V1262Z" />
<glyph unicode="H" glyph-name="H" horiz-adv-x="984" d="M633 1760H840V0H633V853H351V0H144V1760H351V1022H633V1760Z" />
<glyph unicode="I" glyph-name="I" horiz-adv-x="527" d="M160 1760H367V0H160V1760Z" />
<glyph unicode="J" glyph-name="J" horiz-adv-x="858" d="M511 1760H718V426Q718 -21 404 -21Q238 -21 160 80T82 389V619H284V402Q284 268 296 238T320 190Q344 155 399 155T478 192T506 284T511 418V1760Z" />
<glyph unicode="K" glyph-name="K" horiz-adv-x="894" d="M664 1760H872L544 891L895 0H679L353 842V0H144V1760H351V921L664 1760Z" />
<glyph unicode="L" glyph-name="L" horiz-adv-x="712" d="M144 1760H351V171H676V0H144V1760Z" />
<glyph unicode="M" glyph-name="M" horiz-adv-x="1296" d="M893 1760H1152V0H968V706L985 1364L746 3H559L310 1364L327 706V0H144V1760H402L654 313L893 1760Z" />
<glyph unicode="N" glyph-name="N" horiz-adv-x="1014" d="M687 1760H870V0H718L323 1208L335 764V0H144V1760H300L708 562L687 1071V1760Z" />
<glyph unicode="O" glyph-name="O" horiz-adv-x="944" d="M124 1282Q124 1582 232 1694Q317 1782 479 1782Q715 1782 781 1588Q820 1473 820 1282V506Q820 231 743 106T474 -20T203 106T124 506V1282ZM613 1294Q613 1463 586 1533T477 1604T363 1532T331 1295V504Q331
303 359 231T472 158T585 231T613 504V1294Z" />
<glyph unicode="P" glyph-name="P" horiz-adv-x="890" d="M144 1760H498Q732 1760 792 1566Q830 1444 830 1281T821 1036Q801 856 726 774T498 691H351V0H144V1760ZM623 1263Q623 1444 595 1520T482 1596H351V863H477Q565 863 594 940T623 1229V1263Z" />
<glyph unicode="Q" glyph-name="Q" horiz-adv-x="944" d="M613 1294Q613 1463 586 1533T477 1604T363 1532T331 1295V504Q331 303 359 231T472 158T585 231T613 504V1294ZM124 1282Q124 1582 232 1694Q317 1782 479 1782Q715 1782 781 1588Q820 1473 820 1282V506Q820
232 743 106Q698 33 615 2L769 -176L667 -269L437 -19Q273 -8 199 112T124 506V1282Z" />
<glyph unicode="R" glyph-name="R" horiz-adv-x="953" d="M144 1760H513Q670 1760 739 1695T822 1474Q828 1410 828 1275T793 1047T667 928Q733 917 767 859T815 673T829 294T845 0H639Q623 32 623 593Q623 782 586 812T474 843L351 850V0H144V1760ZM623 1329Q623
1532 587 1564T481 1596H351V1002H483Q543 1002 571 1025T611 1113T623 1317V1329Z" />
<glyph unicode="S" glyph-name="S" horiz-adv-x="872" d="M124 1215Q106 1278 106 1366Q106 1557 176 1669T446 1782Q702 1782 748 1536Q768 1430 768 1269V1165H570V1283Q570 1451 553 1509T511 1586T446 1605Q371 1605 338 1550T305 1387T335 1229T409 1134T458
1082L578 955Q794 729 794 449Q794 221 724 101T455 -20Q216 -20 152 190Q115 308 115 499Q115 504 115 509V680H316V501Q316 308 344 233T448 157T553 192T586 301T591 465Q591 648 430 809L315 924Q161 1082 124 1215Z" />
<glyph unicode="T" glyph-name="T" horiz-adv-x="637" d="M28 1760H609V1588H428V0H222V1588H28V1760Z" />
<glyph unicode="U" glyph-name="U" horiz-adv-x="963" d="M623 1760H829V452Q829 205 752 92T483 -21T213 92T134 452V1760H341V457Q341 281 355 247T386 192Q414 154 483 154T585 196T620 321T623 456V1760Z" />
<glyph unicode="V" glyph-name="V" horiz-adv-x="921" d="M666 1760H861L594 0H353L60 1760H257L374 1015L474 360H478L565 1015L666 1760Z" />
<glyph unicode="W" glyph-name="W" horiz-adv-x="1359" d="M1106 1760H1296L1088 0H883L695 1299L496 0H296L64 1760H255L405 411L605 1760H774L979 411L1106 1760Z" />
<glyph unicode="X" glyph-name="X" horiz-adv-x="814" d="M567 1760H753L509 857L761 0H581L402 608L244 0H55L307 932L63 1760H244L416 1174L567 1760Z" />
<glyph unicode="Y" glyph-name="Y" horiz-adv-x="836" d="M614 1760H817L533 739V0H326V739L20 1760H221L429 1040H433L614 1760Z" />
<glyph unicode="Z" glyph-name="Z" horiz-adv-x="764" d="M148 1760H692V1602L329 172H684V0H115V179L478 1588H148V1760Z" />
<glyph unicode="[" glyph-name="bracketleft" horiz-adv-x="764" d="M217 1761H632V1601H423V160H632V0H217V1761Z" />
<glyph unicode="\" glyph-name="backslash" horiz-adv-x="868" d="M115 1761H297L707 0H526L115 1761Z" />
<glyph unicode="]" glyph-name="bracketright" horiz-adv-x="764" d="M166 1761H581V0H166V160H376V1601H166V1761Z" />
<glyph unicode="^" glyph-name="asciicircum" horiz-adv-x="1030" d="M384 1500H645L886 577H685L515 1340L345 577H143L384 1500Z" />
<glyph unicode="_" glyph-name="underscore" horiz-adv-x="748" d="M48 -46H699V-198H48V-46Z" />
<glyph unicode="`" glyph-name="grave" horiz-adv-x="650" d="M121 492V703L492 509V398L121 492Z" />
<glyph unicode="a" glyph-name="a" horiz-adv-x="926" d="M586 827Q460 770 418 739T355 667T333 530V391Q333 260 356 207T435 153T531 185T586 256V827ZM145 1066Q145 1338 230 1428T472 1518T699 1442T786 1198Q793 1126 793 1021V0H587V130Q571 76 517 32T383
-13Q128 -13 126 385V531Q126 660 196 751T586 960V1076Q586 1269 558 1308T463 1347T372 1288T349 1075V1023H145V1066Z" />
<glyph unicode="b" glyph-name="b" horiz-adv-x="937" d="M147 1779H352V1381Q368 1439 423 1478T541 1518Q726 1518 779 1335Q814 1217 814 1040V463Q814 185 738 76Q676 -13 556 -13Q410 -13 352 126V0H147V1779ZM608 1067Q608 1216 595 1254T563 1319T500 1346Q456
1346 432 1336Q352 1300 352 1066V458Q352 295 379 225T483 154T584 224T608 463V1067Z" />
<glyph unicode="c" glyph-name="c" horiz-adv-x="880" d="M124 1008Q124 1203 153 1293T220 1426Q301 1518 458 1518T684 1440Q752 1362 768 1208Q774 1142 775 1051V947H573V1079Q573 1219 562 1262Q522 1326 466 1342Q368 1342 345 1244Q330 1182 330 1073V435Q330
281 353 220T444 158T542 201T573 431V576H775V479Q775 172 694 77T447 -18Q185 -18 140 262Q124 365 124 506V1008Z" />
<glyph unicode="d" glyph-name="d" horiz-adv-x="938" d="M586 1779H792V0H586V126Q530 -13 379 -13Q172 -13 136 260Q124 351 124 480V1047Q124 1318 212 1430Q282 1518 410 1518Q466 1518 513 1485T586 1400V1779ZM587 1050Q587 1208 561 1277T459 1346T357
1277T330 1045V439Q330 219 388 173Q412 154 456 154T528 178Q587 228 587 448V1050Z" />
<glyph unicode="e" glyph-name="e" horiz-adv-x="893" d="M124 1035Q124 1319 226 1430Q306 1518 462 1518Q688 1518 746 1323Q778 1213 778 1026V743H330V444Q330 249 361 201T459 153T548 209T572 330T573 441V562H774V498Q774 259 741 163T639 25T471 -18T310
7T214 75T151 209T124 505V1035ZM573 1073Q573 1233 562 1266T532 1324T467 1349Q377 1349 353 1274T329 1066V882H573V1073Z" />
<glyph unicode="f" glyph-name="f" horiz-adv-x="623" d="M200 1515Q200 1786 432 1786Q518 1786 581 1765V1622Q541 1628 494 1628T426 1603T405 1523V1442H581V1291H405V0H200V1291H71V1442H200V1515Z" />
<glyph unicode="g" glyph-name="g" horiz-adv-x="929" d="M400 1518Q541 1518 583 1390V1500H788V140Q788 -128 586 -203Q516 -229 424 -229Q240 -229 119 -133L193 7Q302 -67 424 -67Q505 -67 544 -16T583 121V264Q556 194 508 167Q458 140 384 140Q234 140 178
267T122 608V1038Q122 1518 400 1518ZM583 1068Q583 1214 557 1280T464 1347T370 1309T336 1214T328 1070V603Q328 444 357 374T466 303Q508 303 532 327Q582 376 583 605V1068Z" />
<glyph unicode="h" glyph-name="h" horiz-adv-x="969" d="M147 1779H352V1341Q373 1414 439 1466T605 1519T769 1438T832 1196V0H627V1179Q627 1342 504 1342Q437 1342 395 1295T352 1154V0H147V1779Z" />
<glyph unicode="i" glyph-name="i" horiz-adv-x="503" d="M150 1500H355V0H150V1500ZM150 1826H356V1638H150V1826Z" />
<glyph unicode="j" glyph-name="j" horiz-adv-x="533" d="M80 -56Q94 -58 109 -58T132 -57Q182 -52 182 10V1500H387V20Q387 -97 339 -151T221 -209Q199 -211 145 -211T74 -200V-56H80ZM180 1826H386V1638H180V1826Z" />
<glyph unicode="k" glyph-name="k" horiz-adv-x="866" d="M147 1779H352V787L647 1500H854L538 759L871 0H660L352 730V0H147V1779Z" />
<glyph unicode="l" glyph-name="l" horiz-adv-x="501" d="M148 1779H353V0H148V1779Z" />
<glyph unicode="m" glyph-name="m" horiz-adv-x="1432" d="M352 1344Q373 1420 435 1469T586 1519Q744 1519 798 1367Q836 1437 901 1478T1052 1519Q1171 1519 1233 1434T1295 1184V0H1090V1190Q1090 1342 970 1342Q834 1342 824 1203V0H618V1191Q618 1342 500
1342Q428 1342 390 1296T352 1168V0H147V1500H352V1344Z" />
<glyph unicode="n" glyph-name="n" horiz-adv-x="970" d="M352 1341Q372 1414 439 1466T607 1519T770 1438T833 1196V0H628V1195Q628 1271 593 1309T496 1347T393 1304T352 1175V0H147V1500H352V1341Z" />
<glyph unicode="o" glyph-name="o" horiz-adv-x="914" d="M124 1027Q124 1392 292 1482Q360 1518 450 1518Q685 1518 750 1329Q790 1210 790 1027V496Q790 180 705 81T459 -18Q224 -18 160 182Q124 297 124 496V1027ZM584 1068Q584 1282 523 1328Q498 1347 458
1347Q377 1347 354 1274T330 1068V439Q330 218 392 172Q417 153 454 153Q456 153 458 153Q537 153 560 227T584 439V1068Z" />
<glyph unicode="p" glyph-name="p" horiz-adv-x="938" d="M352 1375Q380 1444 437 1478T558 1513Q737 1513 785 1327Q815 1211 815 1030V487Q815 188 740 85T527 -18Q472 -18 425 16T352 100V-274H147V1500H352V1375ZM609 1066Q609 1076 609 1085T609 1102T609
1117T609 1130Q609 1136 609 1141Q609 1218 596 1253Q582 1292 569 1310Q543 1346 494 1346T416 1327Q352 1284 352 1066V451Q352 292 379 223T482 154T583 224T609 459V1066Z" />
<glyph unicode="q" glyph-name="q" horiz-adv-x="931" d="M380 1513Q529 1513 585 1383V1500H790V-274H585V104Q563 52 516 17T406 -18T292 7Q195 54 160 175T124 480V1030Q124 1312 198 1422Q259 1512 380 1513ZM584 1050Q584 1209 556 1277T453 1346T354 1278T329
1044V437Q329 257 357 206T439 154T522 174Q584 218 584 435V1050Z" />
<glyph unicode="r" glyph-name="r" horiz-adv-x="651" d="M608 1518Q612 1518 612 1388L611 1344Q431 1344 353 1219V0H147V1500H353V1333Q379 1421 444 1469T608 1518Z" />
<glyph unicode="s" glyph-name="s" horiz-adv-x="805" d="M745 344Q744 -20 424 -20Q262 -20 181 83T100 414V527H299V415Q299 155 417 155Q482 155 510 197T539 343Q539 506 389 653Q378 664 337 702T283 754Q88 940 88 1165Q88 1343 172 1430T411 1518Q516 1518
582 1475Q720 1385 720 1050V978H525V1082Q525 1213 500 1277T412 1342T319 1303T288 1171Q288 1025 425 889L533 788Q745 585 745 344Z" />
<glyph unicode="t" glyph-name="t" horiz-adv-x="612" d="M183 1760H388V1488H550V1336H388V241Q388 183 415 169T552 154V-9H411Q269 -9 226 42T183 223V1336H46V1488H183V1760Z" />
<glyph unicode="u" glyph-name="u" horiz-adv-x="968" d="M616 1500H822V0H616V153Q592 77 534 29T377 -20T208 61T137 312V1500H342V335Q342 158 471 158Q543 158 579 208T616 340V1500Z" />
<glyph unicode="v" glyph-name="v" horiz-adv-x="753" d="M521 1500H711L496 0H255L42 1500H233L341 655L376 320H395L424 656L521 1500Z" />
<glyph unicode="w" glyph-name="w" horiz-adv-x="1160" d="M940 1500H1108L927 0H738L587 1174L407 0H226L51 1500H223L302 665L325 378H334L372 666L491 1500H670L789 688L830 378H838L862 689L940 1500Z" />
<glyph unicode="x" glyph-name="x" horiz-adv-x="743" d="M43 1500H224L382 1021L522 1500H708L466 766L718 0H527L363 510L212 0H26L278 773L43 1500Z" />
<glyph unicode="y" glyph-name="y" horiz-adv-x="791" d="M558 1500H756L507 -29Q489 -154 461 -192T399 -240T310 -251H109V-96H180Q285 -96 296 -72Q305 -61 305 -29T297 53L52 1500H251L359 720L403 314H421L460 720L558 1500Z" />
<glyph unicode="z" glyph-name="z" horiz-adv-x="680" d="M101 1500H618V1359L287 175H601V0H76V153L406 1323H101V1500Z" />
<glyph unicode="{" glyph-name="braceleft" horiz-adv-x="798" d="M587 1781H647V1614Q556 1614 532 1582T508 1430V1184Q508 948 467 902T342 830Q425 805 453 773T495 683T508 476V230Q508 110 532 78T647 46V-121H587Q427 -121 366 -49T304 217V492Q304 639
281 679T165 720V940Q258 940 281 980T304 1168V1443Q304 1637 365 1709T587 1781Z" />
<glyph unicode="|" glyph-name="bar" horiz-adv-x="537" d="M175 1877H372V-84H175V1877Z" />
<glyph unicode="}" glyph-name="braceright" horiz-adv-x="798" d="M165 1781H225Q385 1781 446 1709T508 1443V1168Q508 1021 531 981T647 940V720Q554 720 531 680T508 492V217Q508 23 447 -49T225 -121H165V46Q256 46 280 78T304 230V476Q304 712 345 758T470
830Q387 855 359 887T317 977T304 1184V1430Q304 1550 280 1582T165 1614V1781Z" />
<glyph unicode="~" glyph-name="asciitilde" horiz-adv-x="1117" d="M341 1134Q398 1134 550 1090Q699 1047 717 1047Q718 1047 718 1047Q795 1047 829 1161L993 1119Q964 1005 902 919T773 832T557 878T354 924T260 831L111 909Q190 1134 341 1134Z" />
</font>
</defs>
</svg>
