<?xml version="1.0" standalone="no"?> <!DOCTYPE svg PUBLIC "-//W3C//DTD SVG 1.0//EN" "http://www.w3.org/TR/2001/REC-SVG-20010904/DTD/svg10.dtd" > <svg xmlns="http://www.w3.org/2000/svg" width="100%" height="100%">
<defs >
<font id="Antonio-Bold" horiz-adv-x="941" ><font-face
    font-family="Antonio"
    units-per-em="2048"
    panose-1="2 0 8 3 0 0 0 0 0 0"
    ascent="2342"
    descent="-612"
    alphabetic="0" />
<missing-glyph horiz-adv-x="748" d="M136 68H544V1297H136V68ZM68 0V1365H612V0H68Z" />
<glyph unicode=" " glyph-name="space" horiz-adv-x="367" />
<glyph unicode="!" glyph-name="exclam" horiz-adv-x="514" d="M126 0V256H386V0H126ZM204 423L115 1761H399L314 423H204Z" />
<glyph unicode="&quot;" glyph-name="quotedbl" horiz-adv-x="944" d="M241 1125L170 1761H415L349 1125H241ZM606 1125L536 1761H780L714 1125H606Z" />
<glyph unicode="#" glyph-name="numbersign" horiz-adv-x="1288" d="M153 0L266 579H140V753H300L355 1031H207V1204H389L501 1762H718L605 1204H793L905 1762H1122L1011 1204H1134V1031H977L922 753H1067V579H887L773 0H557L670 579H482L369 0H153ZM516 752H705L760
1028H571L516 752Z" />
<glyph unicode="$" glyph-name="dollar" horiz-adv-x="902" d="M801 387Q801 62 549 12V-220H405V4Q251 14 169 113T87 443V540H336V419Q336 219 438 219Q492 219 516 254T540 375Q540 525 402 653Q398 657 338 711T267 775Q82 944 82 1172Q82 1519 396 1539V1760H540V1530Q638
1508 694 1440Q775 1341 775 1111Q775 1108 775 1105V1023H538V1122Q538 1224 515 1273T439 1323T360 1292T334 1186Q334 1067 440 965L582 836Q801 632 801 387Z" />
<glyph unicode="%" glyph-name="percent" horiz-adv-x="2209" d="M405 768T468 768T555 807T580 939V1431Q580 1521 557 1557T469 1594T380 1558T356 1431V939Q356 847 380 808ZM645 580T468 580T211 682T130 1005V1363Q130 1586 207 1683T468 1781T728 1684T806
1363V1005Q806 785 726 683ZM1629 246T1653 207T1741 167T1829 207T1854 338V830Q1854 920 1831 956T1742 993T1653 957T1629 830V338Q1629 246 1653 207ZM2080 184T2000 82T1742 -21T1484 81T1403 404V762Q1403 985 1480 1082T1741 1180T2002 1083T2080 762V404Q2080
184 2000 82ZM662 0L1347 1761H1551L875 0H662Z" />
<glyph unicode="&amp;" glyph-name="ampersand" horiz-adv-x="1052" d="M442 706Q300 516 300 388Q336 252 439 209Q481 209 518 243T597 346Q518 524 442 706ZM351 930Q208 1300 208 1449T295 1689T535 1781T767 1692T847 1455T786 1185T613 922Q656 809 742
601Q838 762 932 874L1041 690Q963 604 852 391Q844 376 840 369Q878 279 932 153T998 0H750Q737 32 693 130Q568 -20 406 -20T158 83T73 356T153 658T351 930ZM530 1144Q662 1315 662 1438Q662 1526 640 1563T561 1600Q451 1600 451 1441Q451 1368 530 1144Z"
/>
<glyph unicode="&apos;" glyph-name="quotesingle" horiz-adv-x="423" d="M160 1125L100 1761H338L273 1125H160Z" />
<glyph unicode="(" glyph-name="parenleft" horiz-adv-x="619" d="M534 -136Q417 -136 344 -117T221 -48T150 89T129 313V1374Q129 1511 149 1597T220 1734T344 1804T534 1823V1623Q445 1623 420 1577T395 1378V309Q395 157 420 111T534 64V-136Z" />
<glyph unicode=")" glyph-name="parenright" horiz-adv-x="619" d="M86 -136V64Q175 64 200 110T225 309V1378Q225 1530 200 1576T86 1623V1823Q203 1823 276 1804T399 1735T469 1598T490 1374V313Q490 176 470 90T399 -47T276 -117T86 -136Z" />
<glyph unicode="*" glyph-name="asterisk" horiz-adv-x="960" d="M386 889L421 1180L190 998L95 1162L355 1285L91 1400L186 1564L420 1391L386 1673H574L546 1395L774 1568L869 1404L605 1285L869 1158L774 995L546 1174L574 889H386Z" />
<glyph unicode="+" glyph-name="plus" horiz-adv-x="808" d="M312 421V654H94V831H312V1062H494V831H713V654H494V421H312Z" />
<glyph unicode="," glyph-name="comma" horiz-adv-x="488" d="M172 -338L242 0H117V268H405V9L303 -338H172Z" />
<glyph unicode="-" glyph-name="hyphen" horiz-adv-x="696" d="M89 661V836H567V661H89Z" />
<glyph unicode="." glyph-name="period" horiz-adv-x="532" d="M149 0V246H374V0H149Z" />
<glyph unicode="/" glyph-name="slash" horiz-adv-x="826" d="M86 0L513 1769H748L320 0H86Z" />
<glyph unicode="0" glyph-name="zero" horiz-adv-x="1010" d="M562 210T596 259T631 470V1327Q630 1522 540 1546Q522 1550 483 1550T407 1511T370 1328V470Q370 306 402 258T498 210ZM710 -21T501 -21T198 105T103 475V1316Q103 1548 198 1664T501 1781T803 1665T899
1316V475Q899 231 805 105Z" />
<glyph unicode="1" glyph-name="one" horiz-adv-x="676" d="M258 0V1428Q224 1387 162 1365T40 1342V1541Q125 1553 201 1610T318 1761H526V0H258Z" />
<glyph unicode="2" glyph-name="two" horiz-adv-x="951" d="M160 0V104Q160 242 205 375T348 679Q352 685 421 804T522 968Q600 1096 600 1322T504 1549Q424 1549 405 1423Q397 1369 397 1288V1065H141V1173Q141 1500 202 1615T372 1762Q432 1780 517 1780T670
1742Q736 1704 776 1636Q854 1503 854 1290T771 915T607 629Q459 400 415 210H821V0H160Z" />
<glyph unicode="3" glyph-name="three" horiz-adv-x="960" d="M867 239T774 110T476 -20T188 98T105 474V589H356V467Q356 322 378 266T477 210T578 277T604 514T571 756T442 828H366V1032H440Q534 1032 569 1095T604 1304T575 1499T481 1549T392 1497T366 1314V1261H107V1316Q107
1557 192 1668T476 1780T770 1665T864 1316Q864 1171 819 1073T683 941Q783 894 825 785T867 503Q867 239 774 110Z" />
<glyph unicode="4" glyph-name="four" horiz-adv-x="951" d="M524 -1V310H90V507L477 1761H763V526H899V310H763V-1H524ZM297 526H524V1395L297 526Z" />
<glyph unicode="5" glyph-name="five" horiz-adv-x="951" d="M471 -20Q122 -20 122 343V564H373V371Q373 249 420 220Q438 209 477 209Q479 209 483 209Q571 209 571 382V832Q571 928 551 975T473 1023Q369 1023 369 852L133 862V1760H784V1520H380V1163Q399 1200
448 1223T557 1246Q711 1246 771 1111T831 681T811 272T750 97Q673 -20 471 -20Z" />
<glyph unicode="6" glyph-name="six" horiz-adv-x="951" d="M370 1019Q433 1103 589 1103T813 978T881 580V483Q881 229 801 104T499 -21Q225 -20 148 188Q102 313 102 527V1250Q102 1632 278 1732Q364 1780 502 1781Q681 1781 762 1680T845 1336V1245H595V1281Q595
1440 577 1494T487 1548T393 1490T370 1270V1019ZM427 212T499 212T596 259T622 434V601Q622 749 597 810T510 871T413 844T370 777V459Q370 328 398 270Z" />
<glyph unicode="7" glyph-name="seven" horiz-adv-x="951" d="M500 1H208Q232 343 311 628T454 1097T544 1356T586 1474T604 1526H104V1761H881V1566Q876 1519 849 1445T778 1255Q539 631 500 1Z" />
<glyph unicode="8" glyph-name="eight" horiz-adv-x="951" d="M671 -21T479 -21T192 90T93 431Q92 438 92 565T132 803T241 961Q100 1061 100 1341Q100 1572 189 1676T480 1781T769 1679T856 1341Q856 1058 716 961Q782 913 820 802T858 557V436Q856 203 764 91ZM361
309T384 259T478 208T570 258T590 442V586Q590 856 480 856Q425 856 393 786T360 585V438Q361 309 384 259ZM418 1056Q440 1034 478 1034Q478 1033 479 1033Q516 1033 538 1056Q561 1079 575 1142T589 1317Q589 1428 578 1483T544 1556T479 1573T414 1554Q368 1516
368 1311T418 1056Z" />
<glyph unicode="9" glyph-name="nine" horiz-adv-x="951" d="M823 231T734 106T457 -20T182 83T94 423V519H347V482Q348 319 369 265T451 210T525 234T548 282T557 438V701Q502 664 394 664Q216 664 142 793T67 1184V1248Q67 1576 180 1689Q272 1781 442 1781T693
1716T798 1534T823 1233V530Q823 231 734 106ZM444 884Q543 884 557 970V1304Q557 1434 534 1491T444 1548T353 1490T329 1301V1144Q329 998 352 941T444 884Z" />
<glyph unicode=":" glyph-name="colon" horiz-adv-x="555" d="M136 270V539H419V270H136ZM136 1038V1307H419V1038H136Z" />
<glyph unicode=";" glyph-name="semicolon" horiz-adv-x="561" d="M184 -107L262 255H132V533H435V264L326 -107H184ZM126 944V1250H427V944H126Z" />
<glyph unicode="&lt;" glyph-name="less" horiz-adv-x="730" d="M638 238L65 607V899L638 1264V989L242 753L638 510V238Z" />
<glyph unicode="=" glyph-name="equal" horiz-adv-x="722" d="M104 549V738H618V549H104ZM104 892V1076H618V892H104Z" />
<glyph unicode="&gt;" glyph-name="greater" horiz-adv-x="730" d="M90 238V513L486 749L90 992V1264L664 898V605L90 238Z" />
<glyph unicode="?" glyph-name="question" horiz-adv-x="897" d="M251 494V810Q343 834 381 855T440 891T488 943T530 1049T547 1284V1350Q547 1476 540 1494T521 1531T476 1549Q397 1549 387 1474Q381 1426 381 1336V1160H120V1376Q120 1781 465 1781Q653 1781
730 1685Q781 1622 798 1525T815 1300Q815 1274 815 1272Q815 1261 815 1250Q815 1241 815 1232Q815 1162 808 1094Q789 914 718 823Q645 730 487 684V494H251ZM257 1V299H489V1H257Z" />
<glyph unicode="@" glyph-name="at" horiz-adv-x="1492" d="M736 -59Q429 -59 263 162T97 836Q97 1438 411 1664Q573 1780 813 1780Q1100 1780 1248 1554T1396 910Q1396 660 1327 519T1114 378Q1050 378 994 436T915 597Q896 486 845 424T719 361Q600 361 523
470T445 800T517 1152T717 1283Q776 1283 824 1248T896 1161L927 1283H1056V739Q1056 640 1072 592T1127 544T1186 580Q1226 650 1227 942Q1227 1609 800 1609Q543 1609 418 1407T293 832T403 284T739 110Q840 110 932 138L959 -30Q816 -59 736 -59ZM761 1100Q618
1100 618 804Q618 547 748 547Q806 547 847 605T888 759V1062Q814 1100 761 1100Z" />
<glyph unicode="A" glyph-name="A" horiz-adv-x="976" d="M604 529L486 1413H482L374 529H604ZM52 0L303 1760H657L924 0H674L632 314H348L310 0H52Z" />
<glyph unicode="B" glyph-name="B" horiz-adv-x="996" d="M885 1308Q885 1024 731 959Q919 896 919 544V499Q917 234 827 117T531 0H142V1760H523Q720 1760 802 1669T885 1362V1308ZM410 208H505Q585 208 617 263T649 460V602Q649 736 623 791T523 847H410V208ZM410
1048H509Q578 1048 599 1092T621 1273V1379Q620 1481 593 1515T500 1550H410V1048Z" />
<glyph unicode="C" glyph-name="C" horiz-adv-x="961" d="M875 225T784 103T498 -20T207 110T110 486V1253Q110 1646 316 1744Q392 1780 500 1780Q871 1780 871 1312V1070H612V1295Q612 1431 589 1489T499 1548T406 1486T380 1296V474Q380 332 405 271T496 210T587
272T612 477V729H875V480Q875 225 784 103Z" />
<glyph unicode="D" glyph-name="D" horiz-adv-x="1005" d="M399 208H487Q561 208 594 256T628 432L627 1301Q627 1438 594 1496T478 1554H399V208ZM131 0V1760H526Q720 1760 807 1646T895 1308L896 514Q896 248 808 124T517 0H131Z" />
<glyph unicode="E" glyph-name="E" horiz-adv-x="816" d="M132 0V1760H722V1529H400V1017H706V791H400V231H734V0H132Z" />
<glyph unicode="F" glyph-name="F" horiz-adv-x="796" d="M131 0V1760H735V1527H399V1059H711V825H399V0H131Z" />
<glyph unicode="G" glyph-name="G" horiz-adv-x="1000" d="M463 -18Q297 -18 204 112T110 515V1280Q110 1524 205 1652T509 1780Q768 1780 838 1587Q880 1471 880 1270V1145H630V1329Q630 1450 605 1499T509 1548T409 1490T380 1282V519Q380 346 406 278T507 210T614
283T646 529V766H511V961H880V0H760L719 173Q698 84 627 33T463 -18Z" />
<glyph unicode="H" glyph-name="H" horiz-adv-x="1040" d="M132 0V1760H400V1048H640V1760H908V0H640V818H400V0H132Z" />
<glyph unicode="I" glyph-name="I" horiz-adv-x="552" d="M142 0V1760H410V0H142Z" />
<glyph unicode="J" glyph-name="J" horiz-adv-x="922" d="M794 215T699 98T432 -20T164 84T68 389V703H327V402Q327 256 374 224Q395 210 426 210Q487 210 506 260T526 418V1760H794V431Q794 215 699 98Z" />
<glyph unicode="K" glyph-name="K" horiz-adv-x="970" d="M132 0V1760H400V950L668 1760H945L653 892L968 0H685L402 822V0H132Z" />
<glyph unicode="L" glyph-name="L" horiz-adv-x="761" d="M132 0V1760H400V228H739V0H132Z" />
<glyph unicode="M" glyph-name="M" horiz-adv-x="1418" d="M132 0V1760H465L715 474L950 1760H1285V0H1046V656L1056 1258L819 8H606L359 1258L369 656V0H132Z" />
<glyph unicode="N" glyph-name="N" horiz-adv-x="1069" d="M132 0V1760H342L715 704L696 1184V1760H937V0H747L364 1093L379 631V0H132Z" />
<glyph unicode="O" glyph-name="O" horiz-adv-x="999" d="M380 334T403 273T500 212T596 274T619 489V1309Q619 1434 596 1491T504 1549T408 1492T380 1310V489Q380 334 403 273ZM888 234T796 107T502 -20T205 107T110 492V1297Q110 1781 505 1781Q709 1781 798
1658T888 1297V492Q888 234 796 107Z" />
<glyph unicode="P" glyph-name="P" horiz-adv-x="944" d="M132 0V1760H536Q741 1760 816 1636T896 1264V1227Q896 965 822 830T545 694H400V0H132ZM400 915H492Q577 915 602 980T628 1230V1264Q627 1420 601 1487T494 1554H400V915Z" />
<glyph unicode="Q" glyph-name="Q" horiz-adv-x="1009" d="M888 492Q888 109 684 15L848 -177L716 -292L465 -19Q290 -8 200 113T110 492V1297Q110 1781 505 1781Q709 1781 798 1658T888 1297V492ZM380 334T403 273T500 212T596 274T619 489V1309Q619 1434 596
1491T504 1549T408 1492T380 1310V489Q380 334 403 273Z" />
<glyph unicode="R" glyph-name="R" horiz-adv-x="1010" d="M486 827L400 831V0H132V1760H575Q713 1760 781 1705T870 1550T892 1290T858 1045T732 932Q823 916 859 809T895 364T905 0H637Q627 20 627 631Q627 748 599 786T486 827ZM401 1039H508Q559 1039 583
1062T617 1141T627 1312V1323Q627 1466 603 1510T492 1554H401V1039Z" />
<glyph unicode="S" glyph-name="S" horiz-adv-x="905" d="M97 495V652H351V475Q351 328 376 269T470 209T561 258T584 418T544 611T417 784L287 918Q196 1013 146 1115T95 1351Q95 1569 179 1675T468 1781T745 1658T818 1297V1188H571V1314Q571 1442 549 1497T465
1553T375 1511T347 1385T375 1251T476 1123L621 966Q730 848 785 727T841 463Q841 216 758 98T468 -20T179 111T97 495Z" />
<glyph unicode="T" glyph-name="T" horiz-adv-x="703" d="M222 0V1528H16V1760H687V1528H489V0H222Z" />
<glyph unicode="U" glyph-name="U" horiz-adv-x="1020" d="M898 209T806 95T511 -20T215 95T122 452V1761H390V457Q390 318 403 288T434 234T511 209T594 243T624 327T630 457V1761H898V452Q898 209 806 95Z" />
<glyph unicode="V" glyph-name="V" horiz-adv-x="966" d="M329 0L56 1760H311L426 965L497 405H504L565 965L661 1760H911L660 0H329Z" />
<glyph unicode="W" glyph-name="W" horiz-adv-x="1388" d="M275 0L60 1760H300L429 506L593 1760H809L974 506L1088 1760H1329L1127 0H860L704 1170L542 0H275Z" />
<glyph unicode="X" glyph-name="X" horiz-adv-x="879" d="M618 0L439 541L294 0H35L306 944L36 1760H262L437 1237L578 1760H829L563 859L850 0H618Z" />
<glyph unicode="Y" glyph-name="Y" horiz-adv-x="862" d="M304 0V703L9 1760H265L439 1102H443L598 1760H853L572 703V0H304Z" />
<glyph unicode="Z" glyph-name="Z" horiz-adv-x="810" d="M98 0V238L463 1529H131V1760H744V1543L379 231H736V0H98Z" />
<glyph unicode="[" glyph-name="bracketleft" horiz-adv-x="764" d="M179 0V1761H650V1552H445V209H650V0H179Z" />
<glyph unicode="\" glyph-name="backslash" horiz-adv-x="868" d="M507 0L96 1761H334L744 0H507Z" />
<glyph unicode="]" glyph-name="bracketright" horiz-adv-x="764" d="M135 0V209H340V1552H135V1761H606V0H135Z" />
<glyph unicode="^" glyph-name="asciicircum" horiz-adv-x="1030" d="M114 576L355 1499H674L915 576H659L515 1288L371 576H114Z" />
<glyph unicode="_" glyph-name="underscore" horiz-adv-x="748" d="M48 -211V-28H699V-211H48Z" />
<glyph unicode="`" glyph-name="grave" horiz-adv-x="650" d="M517 908L104 1002V1267L517 1064V908Z" />
<glyph unicode="a" glyph-name="a" horiz-adv-x="981" d="M591 814Q465 758 421 708T377 553V392Q377 287 399 242T470 196T551 229T591 305V814ZM382 -15Q235 -15 172 90T107 394V490Q107 682 211 781Q278 846 438 907Q467 918 518 937T591 964V1095Q591 1217
574 1260T494 1304T410 1258T389 1103V1036H127V1081Q127 1294 206 1406T488 1518T776 1406T862 1070V0H595V149Q575 80 519 33T382 -15Z" />
<glyph unicode="b" glyph-name="b" horiz-adv-x="996" d="M397 140V0H132V1775H397V1392Q419 1448 474 1483T593 1518Q785 1518 846 1346Q885 1236 885 1069V434Q885 432 885 430Q885 105 740 18Q686 -15 614 -15Q612 -15 609 -15Q456 -13 397 140ZM397 320T421
259T512 197T599 256T619 459V1073Q619 1252 572 1288Q551 1304 518 1304Q453 1304 425 1254T397 1074V456Q397 320 421 259Z" />
<glyph unicode="c" glyph-name="c" horiz-adv-x="943" d="M494 -18Q269 -18 190 115T110 500V986Q110 1313 224 1427Q315 1518 499 1518T765 1407T847 1085V920H591V1094Q591 1231 567 1266T484 1301T402 1249T377 1090V414Q377 303 399 251T487 199Q576 200 588
324Q591 353 591 392Q591 402 591 413V591H847V439Q847 219 765 101T494 -18Z" />
<glyph unicode="d" glyph-name="d" horiz-adv-x="998" d="M386 -15Q265 -15 205 53T128 225T110 479V1090Q110 1278 179 1398T407 1518Q469 1518 520 1488T601 1407V1775H866V0H601V139Q541 -15 386 -15ZM377 319T400 258T488 196T577 257T602 463V1063Q602 1248
546 1287Q522 1303 488 1303Q421 1303 399 1242T377 1060V443Q377 319 400 258Z" />
<glyph unicode="e" glyph-name="e" horiz-adv-x="958" d="M482 -18Q229 -18 156 175Q110 298 110 499V1058Q110 1518 493 1518Q697 1518 775 1397T854 1053V732H377V437Q377 281 404 239T485 196T555 221Q582 265 586 311T590 437V569H852V489Q852 285 820 196T746
67Q658 -18 482 -18ZM376 887H590V1079Q590 1202 571 1255T491 1309Q490 1309 490 1309Q386 1309 378 1150Q376 1120 376 1072V887Z" />
<glyph unicode="f" glyph-name="f" horiz-adv-x="637" d="M173 0V1250H57V1441H174V1519Q174 1645 239 1714T414 1784T590 1759V1593Q560 1597 520 1597Q438 1597 438 1511V1441H590V1250H438V0H173Z" />
<glyph unicode="g" glyph-name="g" horiz-adv-x="990" d="M865 185Q865 -7 772 -116T456 -225T100 -118L193 49Q312 -27 415 -27T559 25T600 165V284Q575 212 524 183T392 153Q235 153 175 270T114 582V1065Q114 1518 398 1518Q400 1518 402 1518Q558 1518 600
1367V1500H865V185ZM381 471T404 413T489 354T575 406T600 596V1087Q600 1192 575 1248T484 1304T400 1247T381 1088V594Q381 471 404 413Z" />
<glyph unicode="h" glyph-name="h" horiz-adv-x="1016" d="M132 0V1775H397V1328Q418 1409 480 1463T630 1518Q760 1518 827 1432T894 1181V0H630V1156Q630 1301 524 1301Q463 1301 430 1251T397 1115V0H132Z" />
<glyph unicode="i" glyph-name="i" horiz-adv-x="534" d="M136 0V1500H401V0H136ZM133 1638V1868H400V1638H133Z" />
<glyph unicode="j" glyph-name="j" horiz-adv-x="564" d="M222 -196Q204 -197 144 -197T61 -180V3Q78 -1 106 2Q169 5 169 69V1500H434V79Q434 -58 379 -126T222 -196ZM165 1638V1868H432V1638H165Z" />
<glyph unicode="k" glyph-name="k" horiz-adv-x="937" d="M132 0V1775H397V818L653 1500H922L633 762L939 0H669L397 713V0H132Z" />
<glyph unicode="l" glyph-name="l" horiz-adv-x="534" d="M135 0V1775H399V0H135Z" />
<glyph unicode="m" glyph-name="m" horiz-adv-x="1505" d="M1118 0V1152Q1118 1301 1017 1301Q956 1301 923 1259T890 1138V0H625V1154Q625 1301 527 1301Q462 1301 430 1252T397 1124V0H132V1500H397V1337Q420 1421 480 1469T637 1518Q803 1518 859 1367Q940
1518 1114 1518Q1255 1518 1318 1424T1382 1149V0H1118Z" />
<glyph unicode="n" glyph-name="n" horiz-adv-x="1020" d="M638 1518Q898 1518 898 1181V0H633V1165Q633 1230 604 1267T518 1304T430 1256T397 1127V0H132V1500H397V1328Q417 1408 483 1463T638 1518Z" />
<glyph unicode="o" glyph-name="o" horiz-adv-x="970" d="M486 196Q548 196 570 250T593 413V1084Q593 1194 570 1249T485 1304T400 1250T377 1084V413Q377 248 431 211Q453 196 486 196ZM486 -18Q274 -18 192 109T110 476V1037Q110 1518 485 1518T860 1037V476Q860
101 667 15Q593 -18 486 -18Z" />
<glyph unicode="p" glyph-name="p" horiz-adv-x="998" d="M132 -285V1500H397V1365Q425 1436 486 1475T613 1515T730 1491Q823 1446 855 1333T888 1048V501Q888 237 837 134T700 0Q650 -18 590 -18T479 13T397 91V-285H132ZM397 314T421 256T511 197T599 257T621
450V1072Q621 1252 572 1288Q550 1304 516 1304Q456 1304 427 1255T397 1073V439Q397 314 421 256Z" />
<glyph unicode="q" glyph-name="q" horiz-adv-x="991" d="M110 1048Q110 1515 383 1515Q541 1515 597 1386V1500H862V-285H597V102Q576 52 524 17T405 -18T284 7Q184 54 147 175T110 481V1048ZM478 196Q542 196 569 247T597 429V1063Q597 1189 571 1246T480 1303T396
1242T376 1058V436Q376 250 422 213Q444 196 478 196Z" />
<glyph unicode="r" glyph-name="r" horiz-adv-x="688" d="M654 1518Q658 1518 658 1350L657 1294Q577 1294 500 1267T399 1190V0H132V1500H399V1333Q425 1421 490 1469T654 1518Z" />
<glyph unicode="s" glyph-name="s" horiz-adv-x="867" d="M82 1150Q82 1518 436 1518Q612 1518 693 1418T775 1083V1001H538V1100Q538 1202 515 1251T439 1301T360 1270T334 1164Q334 1045 440 943L582 814Q801 610 801 365Q801 173 714 77T444 -19T174 85T87
421V518H336V397Q336 197 438 197Q492 197 516 232T540 353Q540 503 402 631Q398 635 338 689T267 753Q82 922 82 1150Z" />
<glyph unicode="t" glyph-name="t" horiz-adv-x="645" d="M405 -10Q265 -10 217 43T169 229V1277H47V1469H169V1761H434V1469H580V1277H434V275Q434 222 461 207T585 192V-10H405Z" />
<glyph unicode="u" glyph-name="u" horiz-adv-x="1015" d="M389 -19Q122 -19 122 340V1500H388V381Q388 288 411 244T497 199Q618 199 618 379L619 1500H883V0H618V156Q555 -19 389 -19Z" />
<glyph unicode="v" glyph-name="v" horiz-adv-x="834" d="M255 0L38 1500H288L385 702L418 343H438L466 703L549 1500H797L580 0H255Z" />
<glyph unicode="w" glyph-name="w" horiz-adv-x="1251" d="M783 0L631 1127L469 0H245L44 1500H267L343 867L377 545H383L416 868L505 1500H741L839 880L881 545H887L916 879L983 1500H1205L1015 0H783Z" />
<glyph unicode="x" glyph-name="x" horiz-adv-x="820" d="M558 0L401 449L262 0H17L284 783L34 1500H269L423 1067L555 1500H789L535 755L804 0H558Z" />
<glyph unicode="y" glyph-name="y" horiz-adv-x="852" d="M88 -265V-82H175Q225 -82 252 -74T283 -42Q289 -32 289 -5T282 68L42 1501H294L390 733L430 329H452L488 733L576 1501H827L567 -64Q550 -177 510 -221T370 -265H88Z" />
<glyph unicode="z" glyph-name="z" horiz-adv-x="727" d="M70 0V200L400 1273H95V1500H669V1309L341 222H655V0H70Z" />
<glyph unicode="{" glyph-name="braceleft" horiz-adv-x="798" d="M614 -121Q425 -121 349 -49T272 217V492Q272 655 238 682T133 710V950Q204 950 229 970T263 1028T272 1168V1443Q272 1636 348 1708T614 1781H674V1582Q585 1582 560 1554T535 1430V1184Q535
1053 523 987T478 886T376 830Q445 809 477 774T522 673T535 476V230Q535 135 560 107T674 78V-121H614Z" />
<glyph unicode="|" glyph-name="bar" horiz-adv-x="537" d="M150 -84V1863H393V-84H150Z" />
<glyph unicode="}" glyph-name="braceright" horiz-adv-x="798" d="M133 -121V78Q222 78 247 106T272 230V476Q272 607 284 673T330 774T432 830Q363 851 330 886T285 987T272 1184V1430Q272 1525 247 1553T133 1582V1781H193Q382 1781 458 1709T535 1443V1168Q535
1005 569 978T674 950V710Q603 710 578 690T544 632T535 492V217Q535 24 459 -48T193 -121H133Z" />
<glyph unicode="~" glyph-name="asciitilde" horiz-adv-x="1117" d="M894 889T851 850T758 810T564 862T376 914T314 893T272 821L100 903Q180 1169 347 1169Q404 1169 554 1121T718 1073Q788 1073 823 1183L1009 1141Q989 1061 942 975Z" />
</font>
</defs>
</svg>
